<svg width="21" height="13" viewBox="0 0 21 13" fill="none" xmlns="http://www.w3.org/2000/svg">
<path fill-rule="evenodd" clip-rule="evenodd" d="M19.3039 0.499939H18.1373C17.4929 0.499939 16.9706 1.00362 16.9706 1.62494V11.3749C16.9706 11.9963 17.4929 12.4999 18.1373 12.4999H19.3039C19.9482 12.4999 20.4706 11.9963 20.4706 11.3749V1.62494C20.4706 1.00362 19.9482 0.499939 19.3039 0.499939ZM12.6471 3.12507H13.8137C14.4581 3.12507 14.9804 3.62875 14.9804 4.25007V11.3751C14.9804 11.9964 14.4581 12.5001 13.8137 12.5001H12.6471C12.0027 12.5001 11.4804 11.9964 11.4804 11.3751V4.25007C11.4804 3.62875 12.0027 3.12507 12.6471 3.12507ZM8.32353 5.74986H7.15686C6.51253 5.74986 5.9902 6.25354 5.9902 6.87486V11.3749C5.9902 11.9962 6.51253 12.4999 7.15686 12.4999H8.32353C8.96786 12.4999 9.4902 11.9962 9.4902 11.3749V6.87486C9.4902 6.25354 8.96786 5.74986 8.32353 5.74986ZM2.83333 7.99982H1.66667C1.02233 7.99982 0.5 8.5035 0.5 9.12482V11.3748C0.5 11.9961 1.02233 12.4998 1.66667 12.4998H2.83333C3.47767 12.4998 4 11.9961 4 11.3748V9.12482C4 8.5035 3.47767 7.99982 2.83333 7.99982Z" fill="white"/>
</svg>
