<svg width="26" height="25" viewBox="0 0 26 25" fill="none" xmlns="http://www.w3.org/2000/svg">
<path d="M12.7846 24.0503C11.4543 24.0477 10.1285 23.9607 8.80868 23.7984C7.51238 23.6387 6.2259 23.4121 4.96559 23.0673C4.00236 22.8037 3.04568 22.5174 2.08965 22.2278C1.50792 22.0518 1.2874 21.5233 1.52493 20.9643C1.92868 20.0163 2.3514 19.0749 2.71326 18.1113C3.07709 17.1419 3.37875 16.1498 3.70397 15.1668C4.04032 14.1507 4.36619 13.132 4.70842 12.1178C4.84257 11.7198 5.01663 11.3348 5.15601 10.938C5.20247 10.8056 5.22603 10.653 5.21098 10.5147C5.1017 9.47456 5.20182 8.45519 5.50348 7.45529C6.00211 5.80482 6.94701 4.45821 8.32053 3.40767C9.23795 2.70579 10.2614 2.22208 11.3947 1.97405C11.6761 1.91237 11.9627 1.87406 12.2441 1.81433C12.3056 1.80134 12.3815 1.7533 12.4097 1.70005C12.5824 1.37347 12.8494 1.18582 13.2171 1.18647C13.5921 1.18712 13.861 1.38126 14.0305 1.71694C14.0554 1.76628 14.1293 1.80784 14.1882 1.82212C14.6744 1.93639 15.1698 2.0169 15.6475 2.15715C16.6781 2.46036 17.5929 2.98433 18.4076 3.67777C19.5318 4.63481 20.3301 5.81261 20.8032 7.20532C21.1252 8.15262 21.2802 9.1285 21.1939 10.1232C21.1533 10.59 21.2953 10.988 21.4465 11.4036C21.7606 12.2684 22.0642 13.1365 22.3593 14.0079C22.9129 15.6414 23.439 17.2848 24.0135 18.9112C24.2589 19.606 24.592 20.2715 24.8956 20.9454C25.1547 21.5194 24.9205 22.0564 24.3139 22.2382C23.4246 22.505 22.5399 22.7887 21.6434 23.029C20.9354 23.2186 20.2169 23.3744 19.4951 23.5056C18.7145 23.6478 17.9279 23.7672 17.1388 23.8549C15.8935 23.9925 14.6424 24.0587 13.3886 24.0516C13.187 24.0503 12.9855 24.0516 12.784 24.0516L12.7846 24.0503ZM5.31764 15.9921C5.2895 16.0427 5.26594 16.0732 5.25482 16.1076C5.15994 16.3998 5.07029 16.6939 4.97344 16.9855C4.55596 18.2392 4.12735 19.4897 3.58815 20.6987C3.5358 20.8169 3.55543 20.8682 3.6863 20.9032C4.27392 21.0597 4.85369 21.2467 5.44589 21.3824C6.34041 21.5869 7.23951 21.7811 8.14385 21.9356C9.25431 22.1252 10.3779 22.2219 11.5047 22.268C13.4167 22.3459 15.3268 22.32 17.2271 22.0719C18.1216 21.9551 19.0174 21.8252 19.8982 21.6363C20.8582 21.4298 21.8011 21.1467 22.7526 20.9C22.888 20.8649 22.8906 20.8065 22.8396 20.6909C22.1865 19.2067 21.6761 17.6718 21.1873 16.1284C21.1481 16.0044 21.0951 15.9953 20.9851 16.044C20.3072 16.3479 19.6254 16.6446 18.9481 16.9504C18.8957 16.9744 18.8447 17.0445 18.831 17.1023C18.7871 17.2913 18.759 17.4841 18.7276 17.6757C18.617 18.3522 18.5149 19.0301 18.3938 19.7047C18.3539 19.9274 18.3533 20.1195 18.5352 20.2812C18.5744 20.3163 18.6019 20.3663 18.6288 20.413C18.8126 20.7318 18.8166 21.0526 18.6111 21.3603C18.4037 21.6707 18.102 21.7811 17.7349 21.7304C17.4411 21.6902 17.248 21.5077 17.0858 21.2824C17.0223 21.1948 16.9536 21.1396 16.8319 21.1402C14.4192 21.1435 12.0072 21.1422 9.59458 21.1474C9.52063 21.1474 9.43295 21.198 9.37667 21.2512C9.27852 21.3434 9.2085 21.4642 9.11231 21.5577C8.79887 21.8616 8.28519 21.8778 7.9495 21.6032C7.60138 21.3175 7.52285 20.8208 7.77151 20.45C7.84087 20.3468 7.9338 20.2585 7.99334 20.1507C8.03653 20.0734 8.06271 19.9741 8.05878 19.8871C8.05158 19.7371 8.01494 19.5884 7.99138 19.4391C7.8677 18.6716 7.74796 17.9035 7.61512 17.138C7.60269 17.064 7.52874 16.9731 7.45938 16.9407C6.99805 16.7238 6.53018 16.5199 6.06362 16.3141C5.81692 16.205 5.56957 16.1005 5.31764 15.9921ZM20.569 14.3078C20.5716 14.3078 20.5461 14.1747 20.5271 14.1195C20.2974 13.4482 20.0592 12.7794 19.8374 12.1055C19.6443 11.5185 19.3616 11.0049 18.8467 10.6231C17.8789 9.90569 16.8057 9.61481 15.62 9.83556C15.1384 9.92517 14.6757 10.1193 14.2052 10.2654C14.1104 10.2946 14.0927 10.3634 14.0933 10.4543C14.0966 10.8919 14.1019 11.3302 14.0901 11.7672C14.0861 11.9029 14.056 12.049 13.9972 12.171C13.8185 12.5424 13.418 12.721 13.0136 12.632C12.6361 12.5489 12.3423 12.1977 12.3357 11.7996C12.3279 11.351 12.3318 10.9023 12.3338 10.4537C12.3338 10.366 12.3239 10.2959 12.2258 10.2628C11.8764 10.1446 11.5348 9.99659 11.1781 9.90634C9.88708 9.57845 8.69482 9.8057 7.62821 10.6024C7.3128 10.8381 6.98758 11.088 6.84624 11.4744C6.53345 12.3282 6.23637 13.1878 5.93863 14.0475C5.83982 14.3331 5.80122 14.2831 6.12251 14.4266C6.97449 14.8071 7.8291 15.1818 8.68501 15.5551C9.00303 15.694 9.20654 15.9232 9.26674 16.2635C9.33741 16.6621 9.39434 17.0627 9.45978 17.4627C9.4938 17.6705 9.53241 17.8776 9.57625 18.125C9.64038 18.049 9.67179 18.0133 9.70124 17.9763C10.4596 17.0088 11.2109 16.0362 11.9791 15.0766C12.2088 14.7896 12.4142 14.5123 12.337 14.1215C12.3357 14.1163 12.337 14.1104 12.3377 14.1052C12.3652 13.7007 12.6655 13.369 13.0778 13.2884C13.4357 13.219 13.863 13.419 14.0017 13.7754C14.0809 13.9786 14.0639 14.2176 14.1005 14.439C14.1169 14.5357 14.1359 14.6461 14.1928 14.7195C15.0454 15.8194 15.9046 16.914 16.7632 18.0087C16.7867 18.0386 16.8194 18.06 16.8594 18.0957C16.877 18.0535 16.8888 18.0347 16.8921 18.0152C16.9778 17.4822 17.0687 16.9498 17.1447 16.4154C17.2003 16.0252 17.3606 15.7226 17.7441 15.557C18.4717 15.2434 19.1961 14.9227 19.9205 14.6032C20.1377 14.5078 20.353 14.4072 20.5716 14.3078H20.569ZM12.318 8.4422V3.57323C10.5951 3.84788 9.21308 4.65559 8.17133 6.02103C7.53005 6.86185 7.13939 7.8098 6.99085 8.9019C7.82779 8.40325 8.68239 8.11107 9.60766 8.03575C10.5329 7.96044 11.4281 8.09354 12.318 8.4422ZM19.3944 9.18283V8.81359C19.3387 8.56297 19.2975 8.3078 19.2262 8.06172C18.846 6.74498 18.1164 5.65808 17.0256 4.81596C16.2168 4.19135 15.3046 3.79399 14.2962 3.61609C14.0973 3.58103 14.0953 3.58752 14.0953 3.78685C14.0953 5.27241 14.0953 6.75796 14.0953 8.24352C14.0953 8.30066 14.1019 8.3578 14.1071 8.43636C15.9295 7.76046 17.7172 8.23358 19.3944 9.18283ZM10.8398 19.3742H15.5932C14.7922 18.3509 14.0142 17.3569 13.2165 16.3375C12.4195 17.3562 11.6395 18.3522 10.8398 19.3742Z" fill="#2D2B3C" stroke="white" stroke-width="1.25"/>
</svg>
