<svg width="124" height="124" viewBox="0 0 124 124" fill="none" xmlns="http://www.w3.org/2000/svg">
<path d="M15.2104 97.0505C17.5416 94.8746 19.8744 92.6987 22.2623 90.4695C26.4474 94.4482 30.6141 98.4069 34.8675 102.451C32.5097 104.688 30.1852 106.894 27.864 109.097C26.6535 107.986 25.483 106.954 24.3575 105.875C22.0482 103.659 19.7706 101.409 17.4613 99.195C16.7444 98.5079 15.9624 97.891 15.2104 97.2423L15.2104 97.0539L15.2104 97.0505Z" fill="#DFDFDF"/>
<path d="M31.3605 75.0578C32.8129 73.7006 34.1619 72.4401 35.5559 71.1395C36.1628 71.6465 36.8064 72.1284 37.3833 72.6787C39.4492 74.6513 41.4867 76.654 43.5476 78.6334C46.5105 81.4798 49.4784 84.3196 52.4546 87.151C53.3567 88.0081 54.2954 88.8235 55.3025 89.734C53.8201 91.1179 52.4494 92.3967 51.0587 93.694C49.8599 92.6001 48.686 91.5295 47.5089 90.4556C44.6858 93.1267 41.9094 95.7512 39.113 98.3956C38.2276 97.6102 37.3406 96.8715 36.5086 96.0777C34.3977 94.0617 32.3201 92.0073 30.2093 89.9913C28.035 87.9153 25.8324 85.8659 23.6465 83.8015C23.4231 83.5914 23.2247 83.3563 22.9462 83.0595C24.3553 81.7489 25.726 80.4734 27.15 79.1495C28.3238 80.2151 29.491 81.2756 30.6848 82.3612C32.0822 81.0623 33.4546 79.7851 34.9403 78.4029C33.7448 77.284 32.591 76.2067 31.3588 75.0562L31.3605 75.0578Z" fill="#DFDFDF"/>
<path d="M40.4578 70.7789L95.3421 15.8995C99.0519 12.19 105.066 12.1903 108.776 15.9001V15.9001C112.485 19.6099 112.485 25.6244 108.775 29.3339L53.8909 84.2132L40.4578 70.7789Z" fill="#1E90FF"/>
</svg>
