<svg width="124" height="124" viewBox="0 0 124 124" fill="none" xmlns="http://www.w3.org/2000/svg">
<path d="M96.6564 108.685C94.4805 106.353 92.3046 104.02 90.0754 101.633C94.0541 97.4475 98.0128 93.2808 102.056 89.0274C104.294 91.3852 106.5 93.7097 108.703 96.0309C107.592 97.2414 106.56 98.4119 105.481 99.5374C103.265 101.847 101.015 104.124 98.8009 106.434C98.1138 107.151 97.4969 107.933 96.8482 108.685L96.6598 108.685L96.6564 108.685Z" fill="#DFDFDF"/>
<path d="M74.6637 92.5344C73.3065 91.082 72.046 89.733 70.7454 88.3389C71.2524 87.732 71.7343 87.0884 72.2846 86.5115C74.2572 84.4456 76.2599 82.4081 78.2392 80.3473C81.0857 77.3844 83.9255 74.4165 86.7569 71.4402C87.614 70.5382 88.4294 69.5994 89.3399 68.5924C90.7238 70.0748 92.0026 71.4454 93.2998 72.8361C92.206 74.035 91.1354 75.2088 90.0615 76.386C92.7326 79.2091 95.357 81.9854 98.0015 84.7819C97.2161 85.6672 96.4774 86.5543 95.6836 87.3863C93.6676 89.4972 91.6132 91.5747 89.5972 93.6856C87.5212 95.8598 85.4718 98.0624 83.4074 100.248C83.1973 100.472 82.9622 100.67 82.6654 100.949C81.3548 99.5396 80.0793 98.1689 78.7554 96.7448C79.821 95.571 80.8815 94.4038 81.967 93.21C80.6682 91.8126 79.391 90.4403 78.0088 88.9545C76.8899 90.15 75.8126 91.3039 74.6621 92.536L74.6637 92.5344Z" fill="#DFDFDF"/>
<path d="M70.3848 83.4371L15.5054 28.5528C11.7959 24.843 11.7962 18.8284 15.506 15.119V15.119C19.2158 11.4095 25.2303 11.4098 28.9398 15.1196L83.8191 70.0039L70.3848 83.4371Z" fill="#FF0000"/>
</svg>
