<svg width="375" height="152" viewBox="0 0 375 152" fill="none" xmlns="http://www.w3.org/2000/svg">
<g style="mix-blend-mode:screen">
<g style="mix-blend-mode:screen">
<path d="M1154.23 151.018L-661.235 151.018C-703.153 151.018 -736.879 117.115 -736.879 75.5179C-736.879 33.9208 -702.912 0.0179443 -661.235 0.0179443L1154.23 0.0179443C1195.91 0.0179443 1229.88 33.9208 1229.88 75.5179C1229.88 117.115 1195.91 151.018 1154.23 151.018Z" fill="black"/>
</g>
<g style="mix-blend-mode:screen">
<path d="M1154.23 147.411L-661.235 147.411C-700.984 147.411 -733.025 115.191 -733.025 75.7584C-733.025 36.3253 -700.743 4.10552 -661.235 4.10552L1154.23 4.10552C1193.98 3.86508 1226.03 35.8444 1226.03 75.5179C1226.03 115.191 1193.74 147.171 1153.99 147.171L1154.23 147.411Z" fill="#0B0102"/>
</g>
<g style="mix-blend-mode:screen">
<path d="M1154.23 143.564L-661.235 143.564C-698.817 143.564 -729.412 113.028 -729.412 75.518C-729.412 38.0084 -698.817 7.47176 -661.235 7.47176L1154.23 7.47176C1191.82 7.47176 1222.41 38.0084 1222.41 75.518C1222.41 113.028 1191.82 143.564 1154.23 143.564V143.564Z" fill="#160304"/>
</g>
<g style="mix-blend-mode:screen">
<path d="M1154.23 139.717L-661.235 139.717C-696.889 139.717 -725.557 110.863 -725.557 75.518C-725.557 40.1724 -696.648 11.3189 -661.235 11.3189L1154.23 11.3189C1189.65 11.3189 1218.56 40.1724 1218.56 75.518C1218.56 110.863 1189.65 139.717 1154.23 139.717V139.717Z" fill="#200406"/>
</g>
<g style="mix-blend-mode:screen">
<path d="M1154.23 136.11L-661.235 136.11C-694.721 136.11 -721.703 108.94 -721.703 75.7584C-721.703 42.5769 -694.48 15.4065 -661.235 15.4065L1154.23 15.4065C1187.72 15.166 1214.7 42.096 1214.7 75.5179C1214.7 108.94 1187.48 135.87 1154.23 135.87V136.11Z" fill="#2B0508"/>
</g>
<g style="mix-blend-mode:screen">
<path d="M1154.23 132.263L-661.235 132.263C-692.553 132.263 -718.089 107.016 -718.089 75.5179C-718.089 44.0195 -692.553 18.7727 -661.235 18.7727L1154.23 18.7727C1185.55 19.0132 1210.85 44.26 1210.85 75.5179C1210.85 106.776 1185.55 132.263 1153.99 132.263H1154.23Z" fill="#36070A"/>
</g>
<g style="mix-blend-mode:screen">
<path d="M1154.23 128.416L-661.235 128.416C-690.384 128.416 -714.234 104.852 -714.234 75.5179C-714.234 46.1836 -690.625 22.6199 -661.235 22.6199L1154.23 22.6199C1183.38 22.6199 1207.23 46.424 1207.23 75.5179C1207.23 104.612 1183.63 128.416 1154.23 128.416Z" fill="#41080B"/>
</g>
<g style="mix-blend-mode:screen">
<path d="M1154.23 124.569L-661.235 124.569C-688.458 124.569 -710.38 102.688 -710.38 75.5179C-710.38 48.3476 -688.458 26.467 -661.235 26.467L1154.23 26.467C1181.46 26.467 1203.38 48.3476 1203.38 75.5179C1203.38 102.688 1181.46 124.569 1154.23 124.569Z" fill="#4C0A0D"/>
</g>
<g style="mix-blend-mode:screen">
<path d="M1154.23 120.962L-661.235 120.962C-686.289 120.962 -706.766 100.765 -706.766 75.5179C-706.766 50.2711 -686.53 30.0737 -661.235 30.0737L1154.23 30.0737C1179.29 30.0737 1199.77 50.2711 1199.77 75.5179C1199.77 100.765 1179.53 120.962 1154.23 120.962Z" fill="#570B0F"/>
</g>
<g style="mix-blend-mode:screen">
<path d="M1154.23 117.115L-661.235 117.115C-684.121 117.115 -702.912 98.6007 -702.912 75.5179C-702.912 52.4351 -684.362 33.9208 -661.235 33.9208L1154.23 33.9208C1177.12 33.9208 1195.91 52.4351 1195.91 75.5179C1195.91 98.6007 1177.36 117.115 1154.23 117.115Z" fill="#610C11"/>
</g>
<g style="mix-blend-mode:screen">
<path d="M1154.23 113.268L-661.235 113.268C-682.194 113.268 -699.057 96.4367 -699.057 75.5179C-699.057 54.5992 -682.194 37.7679 -661.235 37.7679L1154.23 37.7679C1175.19 37.7679 1192.06 54.5992 1192.06 75.5179C1192.06 96.4367 1175.19 113.268 1154.23 113.268Z" fill="#6C0E13"/>
</g>
<g style="mix-blend-mode:screen">
<path d="M1154.23 109.661L-661.235 109.661C-680.026 109.661 -695.203 94.5132 -695.203 75.7584C-695.203 57.0036 -680.026 41.8555 -661.235 41.8555L1154.23 41.8555C1173.03 41.8555 1188.2 57.0036 1188.2 75.7584C1188.2 94.5132 1173.03 109.661 1154.23 109.661Z" fill="#770F15"/>
</g>
<g style="mix-blend-mode:screen">
<path d="M1154.23 108.459L-661.235 108.459C-679.544 108.459 -694.239 93.7918 -694.239 75.5179C-694.239 57.2441 -679.544 42.5769 -661.235 42.5769L1154.23 42.5769C1172.54 42.5769 1187.24 57.2441 1187.24 75.5179C1187.24 93.7918 1172.54 108.459 1154.23 108.459Z" fill="#821017"/>
</g>
<g style="mix-blend-mode:screen">
<path d="M1154.23 107.497L-661.235 107.497C-678.821 107.497 -693.275 93.3109 -693.275 75.5179C-693.275 57.725 -679.062 43.5386 -661.235 43.5386L1154.23 43.5386C1171.82 43.5386 1186.28 57.725 1186.28 75.5179C1186.28 93.3109 1172.06 107.497 1154.23 107.497Z" fill="#8D1219"/>
</g>
<g style="mix-blend-mode:screen">
<path d="M1154.23 106.535L-661.235 106.535C-678.339 106.535 -692.312 92.5896 -692.312 75.5179C-692.312 58.4463 -678.339 44.5004 -661.235 44.5004L1154.23 44.5004C1171.34 44.5004 1185.31 58.4463 1185.31 75.5179C1185.31 92.5896 1171.34 106.535 1154.23 106.535Z" fill="#97131B"/>
</g>
<g style="mix-blend-mode:screen">
<path d="M1154.23 105.333L-661.235 105.333C-677.857 105.333 -691.107 91.8683 -691.107 75.5179C-691.107 59.1676 -677.617 45.7027 -661.235 45.7027L1154.23 45.7027C1170.86 45.7027 1184.11 59.1676 1184.11 75.5179C1184.11 91.8683 1170.62 105.333 1154.23 105.333Z" fill="#A2141D"/>
</g>
<g style="mix-blend-mode:screen">
<path d="M1154.23 104.371L-661.235 104.371C-677.135 104.371 -690.144 91.3874 -690.144 75.5179C-690.144 59.6485 -677.135 46.6644 -661.235 46.6644L1154.23 46.6644C1170.13 46.6644 1183.14 59.6485 1183.14 75.5179C1183.14 91.3874 1170.13 104.371 1154.23 104.371Z" fill="#AD151F"/>
</g>
<g style="mix-blend-mode:screen">
<path d="M1154.23 103.41L-661.235 103.41C-676.653 103.41 -689.18 90.9065 -689.18 75.5179C-689.18 60.1294 -676.653 47.6262 -661.235 47.6262L1154.23 47.6262C1169.65 47.6262 1182.18 60.1294 1182.18 75.5179C1182.18 90.9065 1169.65 103.41 1154.23 103.41Z" fill="#B81720"/>
</g>
<g style="mix-blend-mode:screen">
<path d="M1154.23 102.448L-661.235 102.448C-676.171 102.448 -687.976 90.4256 -687.976 75.7584C-687.976 61.0912 -675.93 49.0689 -661.235 49.0689L1154.23 49.0689C1169.17 49.0689 1180.98 61.0912 1180.98 75.7584C1180.98 90.4256 1168.93 102.448 1154.23 102.448V102.448Z" fill="#C31822"/>
</g>
<g style="mix-blend-mode:screen">
<path d="M1154.23 101.246L-661.235 101.246C-675.448 101.246 -687.012 89.7043 -687.012 75.5179C-687.012 61.3316 -675.448 49.7902 -661.235 49.7902L1154.23 49.7902C1168.45 49.7902 1180.01 61.3316 1180.01 75.5179C1180.01 89.7043 1168.45 101.246 1154.23 101.246V101.246Z" fill="#CE1924"/>
</g>
<g style="mix-blend-mode:screen">
<path d="M1154.23 100.284L-661.235 100.284C-674.967 100.284 -686.048 89.2234 -686.048 75.5179C-686.048 61.8125 -674.967 50.752 -661.235 50.752L1154.23 50.752C1167.97 50.752 1179.05 61.8125 1179.05 75.5179C1179.05 89.2234 1167.97 100.284 1154.23 100.284V100.284Z" fill="#D81A26"/>
</g>
<g style="mix-blend-mode:screen">
<path d="M1154.23 99.3221L-661.235 99.3221C-674.244 99.3221 -685.084 88.7425 -685.084 75.5179C-685.084 62.2934 -674.485 51.7138 -661.235 51.7138L1154.23 51.7138C1167.24 51.7138 1178.08 62.2934 1178.08 75.5179C1178.08 88.7425 1167.48 99.3221 1154.23 99.3221V99.3221Z" fill="#E31C28"/>
</g>
<g style="mix-blend-mode:screen">
<path d="M1154.23 98.1198L-661.235 98.1198C-673.762 98.1198 -683.881 88.0211 -683.881 75.5179C-683.881 63.0148 -673.762 52.916 -661.235 52.916L1154.23 52.916C1166.76 52.916 1176.88 63.0148 1176.88 75.5179C1176.88 88.0211 1166.76 98.1198 1154.23 98.1198Z" fill="#EE1D2A"/>
</g>
<g style="mix-blend-mode:screen">
<path d="M1154.23 96.9176L-661.235 96.9176C-673.039 96.9176 -682.676 87.2998 -682.676 75.518C-682.676 63.7361 -673.039 54.1183 -661.235 54.1183L1154.23 54.1183C1166.04 54.1183 1175.68 63.7361 1175.68 75.518C1175.68 87.2998 1166.04 96.9176 1154.23 96.9176Z" fill="#F02734"/>
</g>
<g style="mix-blend-mode:screen">
<path d="M1154.23 95.4749L-661.235 95.4749C-672.317 95.4749 -681.23 86.5785 -681.23 75.5179C-681.23 64.4574 -672.317 55.5609 -661.235 55.5609L1154.23 55.5609C1165.32 55.5609 1174.23 64.4574 1174.23 75.5179C1174.23 86.5785 1165.32 95.4749 1154.23 95.4749Z" fill="#F1323E"/>
</g>
<g style="mix-blend-mode:screen">
<path d="M1154.23 94.0323L-661.235 94.0323C-671.594 94.0323 -679.785 85.6167 -679.785 75.5179C-679.785 65.4192 -671.353 57.0036 -661.235 57.0036L1154.23 57.0036C1164.59 57.0036 1172.78 65.4192 1172.78 75.5179C1172.78 85.6167 1164.35 94.0323 1154.23 94.0323Z" fill="#F33C48"/>
</g>
<g style="mix-blend-mode:screen">
<path d="M1154.23 92.83L-661.235 92.83C-670.63 92.83 -678.339 85.1358 -678.339 75.7584C-678.339 66.381 -670.63 58.6867 -661.235 58.6867L1154.23 58.6867C1163.63 58.6867 1171.34 66.381 1171.34 75.7584C1171.34 85.1358 1163.63 92.83 1154.23 92.83Z" fill="#F44652"/>
</g>
<g style="mix-blend-mode:screen">
<path d="M1154.23 91.3874L-661.235 91.3874C-669.907 91.3874 -677.135 84.4144 -677.135 75.5179C-677.135 66.6214 -670.148 59.6485 -661.235 59.6485L1154.23 59.6485C1162.91 59.6485 1170.13 66.6214 1170.13 75.5179C1170.13 84.4144 1163.15 91.3874 1154.23 91.3874Z" fill="#F6505C"/>
</g>
<g style="mix-blend-mode:screen">
<path d="M1154.23 89.9447L-661.235 89.9447C-669.185 89.9447 -675.689 83.4527 -675.689 75.5179C-675.689 67.5832 -669.185 61.0912 -661.235 61.0912L1154.23 61.0912C1162.18 61.0912 1168.69 67.5832 1168.69 75.5179C1168.69 83.4527 1162.18 89.9447 1154.23 89.9447Z" fill="#F75B66"/>
</g>
<g style="mix-blend-mode:screen">
<path d="M1154.23 88.502L-661.235 88.502C-668.462 88.502 -674.244 82.7313 -674.244 75.5179C-674.244 68.3046 -668.462 62.5339 -661.235 62.5339L1154.23 62.5339C1161.46 62.5339 1167.24 68.3046 1167.24 75.5179C1167.24 82.7313 1161.46 88.502 1154.23 88.502Z" fill="#F96570"/>
</g>
<g style="mix-blend-mode:screen">
<path d="M1154.23 87.2998L-661.235 87.2998C-667.739 87.2998 -673.039 82.01 -673.039 75.5179C-673.039 69.0259 -667.739 63.7361 -661.235 63.7361L1154.23 63.7361C1160.74 63.7361 1166.04 69.0259 1166.04 75.5179C1166.04 82.01 1160.74 87.2998 1154.23 87.2998V87.2998Z" fill="#FA6F7A"/>
</g>
<g style="mix-blend-mode:screen">
<path d="M1154.23 85.8571L-661.235 85.8571C-667.017 85.8571 -671.594 81.2886 -671.594 75.5179C-671.594 69.7472 -667.017 65.1788 -661.235 65.1788L1154.23 65.1788C1160.02 65.1788 1164.59 69.7472 1164.59 75.5179C1164.59 81.2886 1160.02 85.8571 1154.23 85.8571Z" fill="#FC7984"/>
</g>
<g style="mix-blend-mode:screen">
<path d="M1154.23 84.4144L-661.235 84.4144C-666.294 84.4144 -670.149 80.3269 -670.149 75.5179C-670.149 70.709 -666.053 66.6214 -661.235 66.6214L1154.23 66.6214C1159.29 66.6214 1163.15 70.709 1163.15 75.5179C1163.15 80.3269 1159.05 84.4144 1154.23 84.4144Z" fill="#FD848E"/>
</g>
<g style="mix-blend-mode:screen">
<path d="M1154.23 83.2122L-661.235 83.2122C-665.33 83.2122 -668.703 79.846 -668.703 75.7584C-668.703 71.6708 -665.33 68.3046 -661.235 68.3046L1154.23 68.3046C1158.33 68.3046 1161.7 71.6708 1161.7 75.7584C1161.7 79.846 1158.33 83.2122 1154.23 83.2122Z" fill="#FF8E98"/>
</g>
</g>
</svg>
