<svg width="270" height="41" viewBox="0 0 270 41" fill="none" xmlns="http://www.w3.org/2000/svg">
<path d="M188.262 0.123108C189.045 1.33041 189.498 2.45943 190.055 3.61317C195.518 15.3195 200.084 27.1577 203.772 39.5439C203.928 40.096 203.821 40.2979 203.092 40.2938C196.763 40.2732 190.434 40.2732 184.105 40.2938C183.425 40.2938 183.099 40.1125 182.724 39.5975C179.959 35.7283 177.248 31.8427 174.586 27.9035C174.434 27.6727 174.257 27.4461 173.935 27.2112C174.067 28.6205 174.178 30.0255 174.281 31.4389C174.483 34.1708 174.615 36.9027 174.731 39.6428C174.751 40.1537 174.545 40.2979 173.911 40.2938C167.553 40.2773 161.191 40.2773 154.833 40.2938C154.169 40.2938 153.93 40.1002 153.7 39.6222C147.848 27.0341 142.999 14.2317 139.257 0.860677C139.191 0.617567 139.096 0.38682 139.125 0.127228C143.221 0.127228 147.313 0.127228 151.409 0.127228C151.429 0.201397 151.437 0.279687 151.47 0.349735C153.234 4.49907 155.129 8.64017 157.152 12.6783C157.235 12.839 157.239 13.0985 157.556 13.1727C157.532 10.8034 157.474 8.44651 157.338 6.07722C157.227 4.09527 157.177 2.13803 156.897 0.127228C161.43 0.123108 165.962 0.123108 170.495 0.123108C170.565 0.246723 170.626 0.374458 170.705 0.493953C173.243 4.24772 175.88 7.95617 178.587 11.5904C178.979 12.122 179.378 12.6494 179.778 13.181C179.308 10.7993 178.645 8.44239 177.924 6.07722C177.318 4.09527 176.663 2.10919 175.983 0.127228C180.079 0.127228 184.171 0.127228 188.266 0.127228L188.262 0.123108Z" fill="#FEDD06"/>
<path d="M137.102 0.123108C137.176 3.10223 137.25 6.08547 137.329 9.06458C137.353 9.96697 137.341 10.8694 137.419 11.7718C137.477 12.4434 137.316 12.6577 136.657 12.6535C132.166 12.6206 127.67 12.6288 123.179 12.6371C120.422 12.6371 117.662 12.6494 114.913 12.6247C114.406 12.6206 114.209 12.7483 114.085 13.3252C113.751 14.8621 113.727 14.8621 115.156 14.8621C119.215 14.8662 123.278 14.8704 127.337 14.8498C127.872 14.8498 127.996 14.994 127.946 15.5544C127.687 18.6118 127.448 21.6692 127.25 24.7266C127.213 25.3035 127.019 25.4271 126.438 25.423C121.642 25.4106 116.838 25.4147 112.045 25.3982C111.419 25.3982 111.205 25.5548 111.081 26.144C110.752 27.7057 110.723 27.7057 112.42 27.7057C120.583 27.7057 128.746 27.7057 136.908 27.6892C137.708 27.6892 137.897 27.9035 137.91 28.6163C137.976 32.2753 138.087 35.9343 138.223 39.5933C138.244 40.162 138.054 40.2979 137.374 40.2979C121.704 40.2815 106.034 40.2815 90.3633 40.2979C89.5722 40.2979 89.6052 40.0507 89.8153 39.5192C94.9701 26.3871 100.112 13.2551 105.259 0.123108C115.873 0.123108 126.488 0.123108 137.102 0.123108V0.123108Z" fill="#FEDD07"/>
<path d="M103.232 0.123108C102.502 1.87844 101.777 3.62965 101.044 5.38498C96.2969 16.7328 91.5459 28.0766 86.8156 39.4326C86.5313 40.1125 86.2552 40.2979 85.4146 40.2938C80.0003 40.2732 74.586 40.2732 69.1717 40.2938C68.397 40.2938 68.2157 40.1743 68.6195 39.4862C71.1948 35.0567 73.7536 30.6189 76.3207 26.1811C76.6833 25.5589 76.605 25.39 75.9416 25.3941C72.0725 25.4271 68.2033 25.4271 64.3342 25.3941C63.6543 25.39 63.3782 25.5919 62.9538 26.1935C59.8305 30.6313 56.6989 35.0608 53.5756 39.4986C53.1553 40.1002 52.8751 40.3021 52.0881 40.2938C46.6119 40.2732 41.1358 40.2732 35.6597 40.2938C34.8891 40.2938 34.8603 40.129 35.3959 39.5109C46.7685 26.3871 58.1246 13.2551 69.4807 0.123108C73.457 0.123108 77.4332 0.123108 81.4054 0.123108C78.0925 4.80811 74.7796 9.48899 71.4709 14.174C71.2031 14.5531 70.894 14.8827 71.4833 14.8786C75.1134 14.8498 78.7106 14.858 82.3078 14.8704C82.7075 14.8704 82.9011 14.7509 83.1443 14.3223C85.8638 9.58789 88.5833 4.85344 91.307 0.123108C95.2791 0.123108 99.2554 0.123108 103.232 0.123108Z" fill="#FEDD06"/>
<path d="M232.15 0.123139C232.842 0.741213 233.711 1.37165 234.511 1.99384C238.631 5.19959 242.752 8.40534 246.872 11.6152C248.393 12.7978 248.302 12.633 247.206 12.633C242.83 12.6371 238.454 12.633 234.082 12.633C233.872 12.633 233.658 12.6247 233.464 12.6412C233.068 12.67 232.928 12.8472 233.34 13.3334C233.752 13.8155 234.259 14.1699 235.03 14.4872C239.237 16.2508 243.465 17.9608 247.696 19.6708C254.829 22.4686 263.115 26.8363 267.73 33.153C270.384 37.1417 268.863 39.3173 264.533 40.1249C263.713 40.2774 262.707 40.2774 261.702 40.2774C253.127 40.2774 244.552 40.2733 235.982 40.2897C235.228 40.2897 234.898 40.1414 234.358 39.511C231.185 35.8149 228.004 32.1353 224.803 28.4639C224.251 27.8294 224.321 27.681 224.992 27.6851C229.817 27.7057 234.655 27.7016 239.484 27.6975C239.727 27.6975 239.97 27.6975 240.213 27.6975C240.716 27.6975 240.951 27.5492 240.593 27.0465C240.238 26.552 239.756 26.2059 238.961 25.8927C235.372 24.4629 231.857 22.9589 228.458 21.558C222.973 19.4318 218.251 15.5956 214.452 11.1743C212.301 7.9562 208.436 3.29592 212.742 0.279718C212.845 0.254995 213.059 0.308561 212.948 0.119019C219.351 0.123139 225.75 0.123139 232.15 0.123139Z" fill="#FEDD07"/>
<path d="M67.4534 0.12323C67.2433 0.37046 67.0414 0.62181 66.823 0.86904C63.5884 4.4992 60.3497 8.12935 57.1233 11.7719C56.5382 12.4312 56.2086 12.6578 55.5493 12.6537C50.8808 12.6248 46.1257 12.5589 41.5272 12.6372C37.5386 12.7031 33.3563 14.6809 30.1835 16.8112C29.5325 17.248 16.2315 26.4738 24.3036 27.644C24.8104 27.6976 25.3831 27.6976 25.9518 27.6976C31.3496 27.6976 36.7516 27.6976 42.1494 27.6893C42.7428 27.6893 42.8252 27.8171 42.306 28.3981C38.9684 32.123 35.6391 35.8562 32.3179 39.6017C31.877 40.1003 31.5886 40.2939 30.917 40.2898C24.2706 40.3022 17.6325 40.3516 10.9902 40.2321C4.08017 39.3874 -2.55383 36.7421 3.06653 28.8431C9.93952 19.0528 22.5894 12.1757 33.1049 7.17752C39.1374 4.30965 45.5983 1.07918 52.3724 0.275688C52.4836 0.263327 52.5866 0.263327 52.7844 0.12735C57.6755 0.12323 62.5624 0.12323 67.4534 0.12323Z" fill="#FEDD07"/>
<path d="M195.061 0.123108C196.264 0.547519 197.492 1.04198 198.901 1.98145C201.139 3.46895 202.676 5.16247 203.858 6.95077C205.614 9.60025 206.425 11.8912 206.149 13.7949C206.063 14.4006 205.783 14.8786 205.086 15.0558C204.752 15.1382 204.625 15.0475 204.435 14.6479C203.829 13.3623 203.145 12.0561 202.515 10.7746C202.292 10.3213 202.066 10.14 201.613 10.1071C199.511 9.95873 196.079 7.84492 194.113 5.25313C192.358 2.93741 192.185 0.963689 193.631 0.230241C193.652 0.217879 193.631 0.160192 193.627 0.127228H195.057L195.061 0.123108Z" fill="#FEDD07"/>
</svg>
