<svg width="124" height="124" viewBox="0 0 124 124" fill="none" xmlns="http://www.w3.org/2000/svg">
<path d="M96.6564 108.684C94.4805 106.353 92.3046 104.02 90.0754 101.633C94.0541 97.4475 98.0128 93.2807 102.056 89.0273C104.294 91.3852 106.5 93.7097 108.703 96.0308C107.592 97.2413 106.56 98.4118 105.481 99.5373C103.265 101.847 101.015 104.124 98.8009 106.434C98.1138 107.15 97.4969 107.932 96.8482 108.684L96.6598 108.684L96.6564 108.684Z" fill="#DFDFDF"/>
<path d="M74.6637 92.5343C73.3065 91.0819 72.046 89.7329 70.7454 88.3389C71.2524 87.7319 71.7343 87.0883 72.2846 86.5114C74.2572 84.4456 76.2599 82.4081 78.2392 80.3472C81.0857 77.3843 83.9255 74.4164 86.7569 71.4402C87.614 70.5381 88.4294 69.5994 89.3399 68.5923C90.7238 70.0747 92.0026 71.4454 93.2998 72.8361C92.206 74.0349 91.1354 75.2087 90.0615 76.3859C92.7326 79.209 95.357 81.9854 98.0015 84.7818C97.2161 85.6672 96.4774 86.5542 95.6836 87.3862C93.6676 89.4971 91.6132 91.5746 89.5972 93.6855C87.5212 95.8597 85.4718 98.0623 83.4074 100.248C83.1973 100.472 82.9622 100.67 82.6654 100.949C81.3548 99.5395 80.0793 98.1688 78.7554 96.7448C79.821 95.5709 80.8815 94.4038 81.967 93.2099C80.6682 91.8126 79.391 90.4402 78.0088 88.9545C76.8899 90.15 75.8126 91.3038 74.6621 92.536L74.6637 92.5343Z" fill="#DFDFDF"/>
<path d="M70.3848 83.437L15.5054 28.5527C11.7959 24.8429 11.7962 18.8284 15.506 15.1189V15.1189C19.2158 11.4095 25.2303 11.4097 28.9398 15.1195L83.8191 70.0039L70.3848 83.437Z" fill="#1E90FF"/>
</svg>
