<svg width="22" height="23" viewBox="0 0 22 23" fill="none" xmlns="http://www.w3.org/2000/svg">
<path d="M6.01901 10.5193C5.05048 10.5193 4.08111 10.5202 3.11259 10.5193C1.75429 10.5176 0.774796 9.52388 0.773109 8.1459C0.772265 6.63639 0.772265 5.12774 0.773109 3.61823C0.774796 2.24885 1.7526 1.24738 3.0915 1.24566C4.57972 1.24394 6.06794 1.24394 7.55616 1.24566C8.89675 1.24738 9.87371 2.24713 9.87455 3.61823C9.87539 5.65641 9.87455 7.69545 9.87455 9.73363C9.87455 10.2528 9.60964 10.5193 9.09332 10.5193C8.06827 10.5193 7.04322 10.5193 6.01901 10.5193ZM8.52638 9.14479C8.52638 9.04679 8.52638 8.98232 8.52638 8.9187C8.52638 7.1599 8.52638 5.4011 8.52638 3.6423C8.52638 2.995 8.1577 2.62021 7.51904 2.62021C6.0595 2.62021 4.59997 2.62021 3.14043 2.62021C2.48743 2.62021 2.12213 2.98985 2.12213 3.65176C2.12213 5.13892 2.12213 6.62608 2.12213 8.11323C2.12213 8.77429 2.48743 9.14479 3.14043 9.14479C4.85981 9.14479 6.5792 9.14479 8.29774 9.14479H8.52553H8.52638Z" fill="#2D2B3C" stroke="white" stroke-width="0.75"/>
<path d="M15.7216 10.5192C14.7033 10.5192 13.6859 10.5192 12.6676 10.5192C12.1665 10.5192 11.8965 10.2484 11.8965 9.74468C11.8965 7.69877 11.8956 5.65371 11.8965 3.60779C11.8973 2.25216 12.8785 1.24811 14.2039 1.24553C15.6989 1.24295 17.1947 1.24295 18.6897 1.24553C20.0159 1.24725 20.9962 2.2513 20.9979 3.60693C20.9996 5.12332 20.9996 6.6397 20.9979 8.15609C20.9962 9.52032 20.0142 10.5166 18.6694 10.5192C17.6865 10.5209 16.7037 10.5192 15.7208 10.5192H15.7216ZM13.2455 9.13521C13.3003 9.1395 13.3341 9.1438 13.367 9.1438C15.1564 9.1438 16.9458 9.14724 18.7352 9.14208C19.2693 9.14036 19.6481 8.73462 19.6489 8.17672C19.6514 6.64658 19.6514 5.11644 19.6489 3.58716C19.6481 3.01121 19.2617 2.62094 18.6947 2.62008C17.193 2.61836 15.6913 2.6175 14.1896 2.62008C13.6353 2.62094 13.2506 3.01379 13.2463 3.57599C13.243 4.01182 13.2463 4.44851 13.2463 4.88434C13.2463 6.29241 13.2463 7.70049 13.2463 9.13435L13.2455 9.13521Z" fill="#2D2B3C" stroke="white" stroke-width="0.75"/>
<path d="M9.87507 16.6266C9.87507 17.628 9.87592 18.6295 9.87507 19.631C9.87339 20.9866 8.89305 21.9915 7.56765 21.9932C6.07268 21.9958 4.57687 21.9958 3.08189 21.9932C1.7565 21.9915 0.774475 20.9866 0.772788 19.6318C0.771101 18.1155 0.771101 16.5991 0.772788 15.0827C0.774475 13.7271 1.75481 12.7221 3.08021 12.7204C5.09488 12.7178 7.10954 12.7196 9.12421 12.7204C9.60426 12.7204 9.87423 12.9989 9.87507 13.4941C9.87507 14.5385 9.87507 15.583 9.87507 16.6266V16.6266ZM8.52606 14.0941H8.30333C6.57719 14.0941 4.85106 14.0941 3.12492 14.0941C2.4888 14.0941 2.12265 14.4698 2.12181 15.1196C2.12181 16.6068 2.12181 18.094 2.12181 19.5811C2.12181 20.2465 2.48542 20.6187 3.13505 20.6187C4.59458 20.6187 6.05412 20.6187 7.51366 20.6187C8.16159 20.6187 8.52606 20.2448 8.52606 19.5803C8.52606 17.8283 8.52606 16.0773 8.52606 14.3254V14.0941V14.0941Z" fill="#2D2B3C" stroke="white" stroke-width="0.75"/>
<path d="M11.8973 16.6102C11.8973 15.5658 11.8973 14.5213 11.8973 13.4778C11.8973 13.0007 12.1732 12.7213 12.6431 12.7204C14.6578 12.7204 16.6725 12.7187 18.6871 12.7204C20.0151 12.7221 20.9971 13.7245 20.9988 15.0784C21.0005 16.5948 21.0005 18.1112 20.9988 19.6275C20.9971 20.9943 20.0167 21.9924 18.6736 21.9941C17.1922 21.9958 15.7115 21.9958 14.2301 21.9941C12.8751 21.9924 11.8982 20.9952 11.8973 19.6146C11.8965 18.6132 11.8973 17.6117 11.8973 16.6102V16.6102ZM13.2464 14.095V14.2961C13.2464 16.0704 13.2464 17.8455 13.2464 19.6198C13.2464 20.2379 13.6235 20.6187 14.2343 20.6195C15.709 20.6204 17.1837 20.6204 18.6584 20.6195C19.2785 20.6195 19.6489 20.237 19.6498 19.6009C19.6498 18.1051 19.6498 16.6102 19.6498 15.1145C19.6498 14.468 19.2794 14.095 18.639 14.095C16.9188 14.095 15.1977 14.095 13.4775 14.095H13.2464Z" fill="#2D2B3C" stroke="white" stroke-width="0.75"/>
</svg>
